<?xml version="1.0" encoding="utf-8"?>
<!-- Generator: Adobe Illustrator 26.3.1, SVG Export Plug-In . SVG Version: 6.00 Build 0)  -->
<svg version="1.1" id="レイヤー_1" xmlns:svg="http://www.w3.org/2000/svg"
	 xmlns="http://www.w3.org/2000/svg" xmlns:xlink="http://www.w3.org/1999/xlink" x="0px" y="0px" viewBox="0 0 1190.5 841.9"
	 style="enable-background:new 0 0 1190.5 841.9;" xml:space="preserve">
<style type="text/css">
	.st0{fill:none;stroke:#000000;stroke-width:2.834646e-02;stroke-linecap:round;stroke-linejoin:round;stroke-miterlimit:10;}
	.st1{fill:none;stroke:#0000FF;stroke-width:2.834646e-02;stroke-linecap:round;stroke-linejoin:round;stroke-miterlimit:10;}
</style>
<g transform="translate(0 0) scale(1 1)">
</g>
<circle class="st0" cx="285.1" cy="534.4" r="2.8"/>
<circle class="st0" cx="143.3" cy="534.4" r="2.8"/>
<circle class="st0" cx="241.1" cy="413.9" r="2.8"/>
<circle class="st0" cx="187.3" cy="413.9" r="2.8"/>
<circle class="st0" cx="241.1" cy="306.2" r="2.8"/>
<circle class="st0" cx="187.3" cy="306.2" r="2.8"/>
<path class="st1" d="M296.8,537.6V198.5H131.6v339.2l0,0c0,4.7,3.8,8.5,8.5,8.5c0,0,0,0,0,0l0,0h148.2l0,0
	C293,546.1,296.8,542.3,296.8,537.6L296.8,537.6"/>
<circle class="st0" cx="455.8" cy="534" r="2.8"/>
<circle class="st0" cx="336.8" cy="534" r="2.8"/>
<circle class="st0" cx="325.5" cy="106" r="2.8"/>
<circle class="st0" cx="467.2" cy="106" r="2.8"/>
<circle class="st0" cx="423.2" cy="441.9" r="2.8"/>
<circle class="st0" cx="369.4" cy="441.9" r="2.8"/>
<circle class="st0" cx="369.4" cy="226.4" r="2.8"/>
<circle class="st0" cx="423.2" cy="226.4" r="2.8"/>
<circle class="st0" cx="369.4" cy="334.2" r="2.8"/>
<circle class="st0" cx="423.2" cy="334.2" r="2.8"/>
<rect x="140.5" y="474.8" class="st0" width="39.7" height="39.7"/>
<rect x="140.5" y="421" class="st0" width="39.7" height="39.7"/>
<rect x="140.5" y="367.1" class="st0" width="39.7" height="39.7"/>
<rect x="140.5" y="313.3" class="st0" width="39.7" height="39.7"/>
<rect x="140.5" y="259.4" class="st0" width="39.7" height="39.7"/>
<rect x="140.5" y="205.6" class="st0" width="39.7" height="39.7"/>
<rect x="194.3" y="205.6" class="st0" width="39.7" height="39.7"/>
<rect x="194.3" y="259.4" class="st0" width="39.7" height="39.7"/>
<rect x="194.3" y="313.3" class="st0" width="39.7" height="39.7"/>
<rect x="194.3" y="367.1" class="st0" width="39.7" height="39.7"/>
<rect x="194.3" y="421" class="st0" width="39.7" height="39.7"/>
<rect x="194.3" y="474.8" class="st0" width="39.7" height="39.7"/>
<rect x="248.2" y="474.8" class="st0" width="39.7" height="39.7"/>
<rect x="248.2" y="421" class="st0" width="39.7" height="39.7"/>
<rect x="248.2" y="367.1" class="st0" width="39.7" height="39.7"/>
<rect x="248.2" y="313.3" class="st0" width="39.7" height="39.7"/>
<rect x="248.2" y="259.4" class="st0" width="39.7" height="39.7"/>
<rect x="248.2" y="205.6" class="st0" width="39.7" height="39.7"/>
<rect x="430.3" y="125.8" transform="matrix(-1 -1.224647e-16 1.224647e-16 -1 900.3544 291.3018)" class="st0" width="39.7" height="39.7"/>
<rect x="430.3" y="179.7" transform="matrix(-1 -1.224647e-16 1.224647e-16 -1 900.3544 399.018)" class="st0" width="39.7" height="39.7"/>
<rect x="430.3" y="233.5" transform="matrix(-1 -1.224647e-16 1.224647e-16 -1 900.3544 506.7315)" class="st0" width="39.7" height="39.7"/>
<rect x="430.3" y="287.4" transform="matrix(-1 -1.224647e-16 1.224647e-16 -1 900.3544 614.4449)" class="st0" width="39.7" height="39.7"/>
<rect x="430.3" y="341.2" transform="matrix(-1 -1.224647e-16 1.224647e-16 -1 900.3544 722.1713)" class="st0" width="39.7" height="39.7"/>
<rect x="430.3" y="395.1" transform="matrix(-1 -1.224647e-16 1.224647e-16 -1 900.3544 829.8833)" class="st0" width="39.7" height="39.7"/>
<rect x="376.5" y="395.1" transform="matrix(-1 -1.224647e-16 1.224647e-16 -1 792.6383 829.8833)" class="st0" width="39.7" height="39.7"/>
<rect x="376.5" y="341.2" transform="matrix(-1 -1.224647e-16 1.224647e-16 -1 792.6383 722.1713)" class="st0" width="39.7" height="39.7"/>
<rect x="376.5" y="287.4" transform="matrix(-1 -1.224647e-16 1.224647e-16 -1 792.6367 614.4529)" class="st0" width="39.7" height="39.7"/>
<rect x="376.5" y="233.5" transform="matrix(-1 -1.224647e-16 1.224647e-16 -1 792.6383 506.7344)" class="st0" width="39.7" height="39.7"/>
<rect x="376.5" y="179.7" transform="matrix(-1 -1.224647e-16 1.224647e-16 -1 792.6383 399.018)" class="st0" width="39.7" height="39.7"/>
<rect x="376.5" y="125.8" transform="matrix(-1 -1.224647e-16 1.224647e-16 -1 792.6383 291.3018)" class="st0" width="39.7" height="39.7"/>
<rect x="322.6" y="125.8" transform="matrix(-1 -1.224647e-16 1.224647e-16 -1 684.9203 291.3018)" class="st0" width="39.7" height="39.7"/>
<rect x="322.6" y="179.7" transform="matrix(-1 -1.224647e-16 1.224647e-16 -1 684.9203 399.018)" class="st0" width="39.7" height="39.7"/>
<rect x="322.6" y="233.5" transform="matrix(-1 -1.224647e-16 1.224647e-16 -1 684.9203 506.7344)" class="st0" width="39.7" height="39.7"/>
<rect x="322.6" y="287.4" transform="matrix(-1 -1.224647e-16 1.224647e-16 -1 684.9203 614.4529)" class="st0" width="39.7" height="39.7"/>
<rect x="322.6" y="341.2" transform="matrix(-1 -1.224647e-16 1.224647e-16 -1 684.9203 722.1713)" class="st0" width="39.7" height="39.7"/>
<rect x="322.6" y="395.1" transform="matrix(-1 -1.224647e-16 1.224647e-16 -1 684.9203 829.8833)" class="st0" width="39.7" height="39.7"/>
<path class="st1" d="M478.9,537.2V102.7h0c0-4.7-3.8-8.5-8.5-8.5h0H322.2h0c-4.7,0-8.5,3.8-8.5,8.5h0v434.5l0,0
	c0,4.7,3.8,8.5,8.5,8.5c0,0,0,0,0,0l0,0h24.2l0-36.2H364l0,36.2h7.1l0-36.2h17.6l0,36.2h6.8l0-36.2H413l0,36.2h57.4l0,0
	C475.1,545.8,479,541.9,478.9,537.2L478.9,537.2"/>
</svg>
