<?xml version="1.0" encoding="utf-8"?>
<!-- Generator: Adobe Illustrator 26.3.1, SVG Export Plug-In . SVG Version: 6.00 Build 0)  -->
<svg version="1.1" id="レイヤー_1" xmlns:svg="http://www.w3.org/2000/svg"
	 xmlns="http://www.w3.org/2000/svg" xmlns:xlink="http://www.w3.org/1999/xlink" x="0px" y="0px" viewBox="0 0 1190.5 841.9"
	 style="enable-background:new 0 0 1190.5 841.9;" xml:space="preserve">
<style type="text/css">
	.st0{fill:none;stroke:#000000;stroke-width:2.834646e-02;stroke-linecap:round;stroke-linejoin:round;stroke-miterlimit:10;}
	.st1{fill:none;stroke:#0000FF;stroke-width:2.834646e-02;stroke-linecap:round;stroke-linejoin:round;stroke-miterlimit:10;}
	.st2{fill:none;stroke:#000000;stroke-width:2.834646e-03;stroke-linecap:round;stroke-linejoin:round;stroke-miterlimit:10;}
</style>
<g transform="translate(0 0) scale(1 1)">
</g>
<circle class="st0" cx="154.7" cy="106.3" r="2.8"/>
<circle class="st0" cx="273.7" cy="106.3" r="2.8"/>
<circle class="st0" cx="285.1" cy="534.4" r="5.7"/>
<circle class="st0" cx="143.3" cy="534.4" r="5.7"/>
<circle class="st0" cx="241.1" cy="413.9" r="5.7"/>
<circle class="st0" cx="187.3" cy="413.9" r="5.7"/>
<circle class="st0" cx="241.1" cy="306.2" r="5.7"/>
<circle class="st0" cx="187.3" cy="306.2" r="5.7"/>
<path class="st1" d="M296.8,537.6V103.1h0c0-4.7-3.8-8.5-8.5-8.5h0H124.9l0,0c-4.7,0-8.5,5.7-8.5,10.4v82.5c0,4.5,3.7,8.2,8.2,8.2
	l7,0l0,342l0,0c0,4.7,3.8,8.5,8.5,8.5c0,0,0,0,0,0l0,0h148.2l0,0C293,546.1,296.8,542.3,296.8,537.6L296.8,537.6"/>
<path class="st0" d="M286.5,117v58.1c0,0.5-0.4,0.9-0.9,0.9h-6.8c-0.5,0-0.9-0.4-0.9-0.9V117c0-0.5,0.4-0.9,0.9-0.9h6.8
	C286.1,116.2,286.5,116.5,286.5,117z"/>
<path class="st0" d="M264,182.5h-98c-0.5,0-0.9-0.4-0.9-0.9v-8.2c0-0.5,0.4-0.9,0.9-0.9h98c0.5,0,0.9,0.4,0.9,0.9v8.2
	C264.9,182.1,264.5,182.5,264,182.5z"/>
<path class="st0" d="M264,161h-98c-0.5,0-0.9-0.4-0.9-0.9V152c0-0.5,0.4-0.9,0.9-0.9h98c0.5,0,0.9,0.4,0.9,0.9v8.2
	C264.9,160.6,264.5,161,264,161z"/>
<circle class="st0" cx="455.8" cy="534" r="5.7"/>
<circle class="st0" cx="336.8" cy="534" r="5.7"/>
<circle class="st0" cx="325.5" cy="106" r="5.7"/>
<circle class="st0" cx="467.2" cy="106" r="5.7"/>
<circle class="st0" cx="423.2" cy="441.9" r="5.7"/>
<circle class="st0" cx="369.4" cy="441.9" r="5.7"/>
<circle class="st0" cx="369.4" cy="226.4" r="5.7"/>
<circle class="st0" cx="423.2" cy="226.4" r="5.7"/>
<circle class="st0" cx="369.4" cy="334.2" r="5.7"/>
<circle class="st0" cx="423.2" cy="334.2" r="5.7"/>
<path class="st0" d="M346.5,457.8h98c0.5,0,0.9,0.4,0.9,0.9v8.2c0,0.5-0.4,0.9-0.9,0.9h-98c-0.5,0-0.9-0.4-0.9-0.9v-8.2
	C345.6,458.2,346,457.8,346.5,457.8z"/>
<path class="st0" d="M346.5,479.3h98c0.5,0,0.9,0.4,0.9,0.9v8.2c0,0.5-0.4,0.9-0.9,0.9h-98c-0.5,0-0.9-0.4-0.9-0.9v-8.2
	C345.6,479.7,346,479.3,346.5,479.3z"/>
<circle class="st0" cx="638.9" cy="534.2" r="2.8"/>
<circle class="st0" cx="519.8" cy="534.2" r="2.8"/>
<circle class="st0" cx="508.5" cy="106.2" r="2.8"/>
<circle class="st0" cx="650.2" cy="106.2" r="2.8"/>
<circle class="st0" cx="606.3" cy="442.1" r="2.8"/>
<circle class="st0" cx="552.4" cy="442.1" r="2.8"/>
<circle class="st0" cx="552.4" cy="226.6" r="2.8"/>
<circle class="st0" cx="606.3" cy="226.6" r="2.8"/>
<circle class="st0" cx="552.4" cy="334.4" r="2.8"/>
<circle class="st0" cx="606.3" cy="334.4" r="2.8"/>
<path class="st1" d="M496.7,102.9v434.5h0c0,4.7,3.8,8.5,8.5,8.5h0h148.2h0c4.7,0,8.5-3.8,8.5-8.5h0V102.9l0,0
	c0-4.7-3.8-8.5-8.5-8.5c0,0,0,0,0,0l0,0H505.3l0,0C500.5,94.4,496.7,98.2,496.7,102.9L496.7,102.9"/>
<path class="st0" d="M526.9,458h103.2c0.5,0,0.9,0.4,0.9,0.9v29.8c0,0.5-0.4,0.9-0.9,0.9H526.9c-0.5,0-0.9-0.4-0.9-0.9v-29.8
	C526,458.4,526.4,458,526.9,458z"/>
<rect x="140.5" y="474.8" class="st0" width="39.7" height="39.7"/>
<rect x="140.5" y="421" class="st0" width="39.7" height="39.7"/>
<rect x="140.5" y="367.1" class="st0" width="39.7" height="39.7"/>
<rect x="140.5" y="313.3" class="st0" width="39.7" height="39.7"/>
<rect x="140.5" y="259.4" class="st0" width="39.7" height="39.7"/>
<rect x="140.5" y="205.6" class="st0" width="39.7" height="39.7"/>
<rect x="194.3" y="205.6" class="st0" width="39.7" height="39.7"/>
<rect x="194.3" y="259.4" class="st0" width="39.7" height="39.7"/>
<rect x="194.3" y="313.3" class="st0" width="39.7" height="39.7"/>
<rect x="194.3" y="367.1" class="st0" width="39.7" height="39.7"/>
<rect x="194.3" y="421" class="st0" width="39.7" height="39.7"/>
<rect x="194.3" y="474.8" class="st0" width="39.7" height="39.7"/>
<rect x="248.2" y="474.8" class="st0" width="39.7" height="39.7"/>
<rect x="248.2" y="421" class="st0" width="39.7" height="39.7"/>
<rect x="248.2" y="367.1" class="st0" width="39.7" height="39.7"/>
<rect x="248.2" y="313.3" class="st0" width="39.7" height="39.7"/>
<rect x="248.2" y="259.4" class="st0" width="39.7" height="39.7"/>
<rect x="248.2" y="205.6" class="st0" width="39.7" height="39.7"/>
<rect x="430.3" y="125.8" transform="matrix(-1 -1.224647e-16 1.224647e-16 -1 900.3544 291.3018)" class="st0" width="39.7" height="39.7"/>
<rect x="430.3" y="179.7" transform="matrix(-1 -1.224647e-16 1.224647e-16 -1 900.3544 399.018)" class="st0" width="39.7" height="39.7"/>
<rect x="430.3" y="233.5" transform="matrix(-1 -1.224647e-16 1.224647e-16 -1 900.3544 506.7315)" class="st0" width="39.7" height="39.7"/>
<rect x="430.3" y="287.4" transform="matrix(-1 -1.224647e-16 1.224647e-16 -1 900.3544 614.4449)" class="st0" width="39.7" height="39.7"/>
<rect x="430.3" y="341.2" transform="matrix(-1 -1.224647e-16 1.224647e-16 -1 900.3544 722.1713)" class="st0" width="39.7" height="39.7"/>
<rect x="430.3" y="395.1" transform="matrix(-1 -1.224647e-16 1.224647e-16 -1 900.3544 829.8833)" class="st0" width="39.7" height="39.7"/>
<rect x="376.5" y="395.1" transform="matrix(-1 -1.224647e-16 1.224647e-16 -1 792.6383 829.8833)" class="st0" width="39.7" height="39.7"/>
<rect x="376.5" y="341.2" transform="matrix(-1 -1.224647e-16 1.224647e-16 -1 792.6383 722.1713)" class="st0" width="39.7" height="39.7"/>
<rect x="376.5" y="287.4" transform="matrix(-1 -1.224647e-16 1.224647e-16 -1 792.6367 614.4529)" class="st0" width="39.7" height="39.7"/>
<rect x="376.5" y="233.5" transform="matrix(-1 -1.224647e-16 1.224647e-16 -1 792.6383 506.7344)" class="st0" width="39.7" height="39.7"/>
<rect x="376.5" y="179.7" transform="matrix(-1 -1.224647e-16 1.224647e-16 -1 792.6383 399.018)" class="st0" width="39.7" height="39.7"/>
<rect x="376.5" y="125.8" transform="matrix(-1 -1.224647e-16 1.224647e-16 -1 792.6383 291.3018)" class="st0" width="39.7" height="39.7"/>
<rect x="322.6" y="125.8" transform="matrix(-1 -1.224647e-16 1.224647e-16 -1 684.9203 291.3018)" class="st0" width="39.7" height="39.7"/>
<rect x="322.6" y="179.7" transform="matrix(-1 -1.224647e-16 1.224647e-16 -1 684.9203 399.018)" class="st0" width="39.7" height="39.7"/>
<rect x="322.6" y="233.5" transform="matrix(-1 -1.224647e-16 1.224647e-16 -1 684.9203 506.7344)" class="st0" width="39.7" height="39.7"/>
<rect x="322.6" y="287.4" transform="matrix(-1 -1.224647e-16 1.224647e-16 -1 684.9203 614.4529)" class="st0" width="39.7" height="39.7"/>
<rect x="322.6" y="341.2" transform="matrix(-1 -1.224647e-16 1.224647e-16 -1 684.9203 722.1713)" class="st0" width="39.7" height="39.7"/>
<rect x="322.6" y="395.1" transform="matrix(-1 -1.224647e-16 1.224647e-16 -1 684.9203 829.8833)" class="st0" width="39.7" height="39.7"/>
<path class="st1" d="M478.9,537.2V102.7h0c0-4.7-3.8-8.5-8.5-8.5h0H322.2h0c-4.7,0-8.5,3.8-8.5,8.5h0v434.5l0,0
	c0,4.7,3.8,8.5,8.5,8.5c0,0,0,0,0,0l0,0h24.2l0-36.2H364l0,36.2h7.1l0-36.2h17.6l0,36.2h6.8l0-36.2H413l0,36.2h57.4l0,0
	C475.1,545.8,479,541.9,478.9,537.2L478.9,537.2"/>
<circle class="st0" cx="821.9" cy="534.4" r="2.8"/>
<circle class="st0" cx="702.8" cy="534.4" r="2.8"/>
<circle class="st0" cx="691.5" cy="106.4" r="2.8"/>
<circle class="st0" cx="833.2" cy="106.4" r="2.8"/>
<circle class="st0" cx="789.3" cy="442.3" r="2.8"/>
<circle class="st0" cx="735.4" cy="442.3" r="2.8"/>
<circle class="st0" cx="735.4" cy="226.8" r="2.8"/>
<circle class="st0" cx="789.3" cy="226.8" r="2.8"/>
<circle class="st0" cx="735.4" cy="334.5" r="2.8"/>
<circle class="st0" cx="789.3" cy="334.5" r="2.8"/>
<path class="st1" d="M679.7,103.1v434.5h0c0,4.7,3.8,8.5,8.5,8.5h0h148.2h0c4.7,0,8.5-3.8,8.5-8.5h0V103.1l0,0
	c0-4.7-3.8-8.5-8.5-8.5c0,0,0,0,0,0l0,0H688.3l0,0C683.5,94.6,679.7,98.4,679.7,103.1L679.7,103.1"/>
<path class="st0" d="M709.9,458.2h103.2c0.5,0,0.9,0.4,0.9,0.9v29.8c0,0.5-0.4,0.9-0.9,0.9H709.9c-0.5,0-0.9-0.4-0.9-0.9v-29.8
	C709.1,458.6,709.4,458.2,709.9,458.2z"/>
<circle class="st2" cx="286.5" cy="105" r="5.5"/>
<circle class="st2" cx="286.5" cy="187.2" r="5.5"/>
<circle class="st2" cx="124.9" cy="105" r="5.5"/>
<circle class="st2" cx="124.9" cy="187.2" r="5.5"/>
</svg>
